<svg xmlns="http://www.w3.org/2000/svg" >
<path transform="scale(0.8) translate(5,0)" d="m10,2.156c0.579,0.015,1.147,0.174,1.593,0.468,0.692,0.457,1.157,1.227,1.157,2.126v31.5c2.005,1,3.374,3.074,3.374,5.468,0,3.372-2.753,6.094-6.124,6.094-3.372,0-6.094-2.722-6.094-6.094,0-2.393,1.369-4.468,3.375-5.468v-31.407c0-0.85,0.378-1.575,0.969-2.062,0.473-0.391,1.076-0.608,1.75-0.625zm-1.537,29.124v5.531c-1.966,0.681-3.374,2.552-3.374,4.75,0,2.774,2.226,5.032,5,5.032s5.031-2.258,5.031-5.032c0-2.198-1.408-4.069-3.375-4.75v-17.531h-3.282z"/>
</svg>
